<svg id="Calque_1" data-name="Calque 1" xmlns="http://www.w3.org/2000/svg" viewBox="0 0 800 621.58"><defs><style>.cls-1{fill:#1d1d1b;}</style></defs><polygon class="cls-1" points="293.73 46.89 271.96 0 211.96 0 190.19 46.89 0 456.55 103.69 456.55 171.16 311.1 241.89 158.64 241.96 158.49 242.11 158.8 380.14 456.35 380.23 456.55 483.93 456.55 293.73 46.89"/><polygon class="cls-1" points="667.3 362.62 498.93 0 395.23 0 607.2 456.55 607.2 456.55 710.9 456.55 800 456.55 800 362.62 667.3 362.62"/><path class="cls-1" d="M36.56,552.56H0v69H12.39V601.3H36.56C51.62,601.3,61,592,61,577S51.62,552.56,36.56,552.56ZM45.63,586c-1.82,1.91-4.87,2.9-9.07,2.9H12.39v-24H36.56c4.22,0,7.27,1,9.08,2.9s3,5,3,9.16S47.6,584.06,45.63,586Z"/><polygon class="cls-1" points="133.57 621.58 133.57 552.56 121.18 552.56 121.18 580.88 84.97 580.88 84.97 552.56 72.58 552.56 72.58 621.58 84.97 621.58 84.97 593.25 121.18 593.25 121.18 621.58 133.57 621.58"/><path class="cls-1" d="M147.34,572.9a47.1,47.1,0,0,0,0,28.39A29.11,29.11,0,0,0,165.5,619.4a47.32,47.32,0,0,0,28.41,0A29.11,29.11,0,0,0,212,601.24a47.21,47.21,0,0,0,0-28.36,29,29,0,0,0-18.15-18.14,47.27,47.27,0,0,0-28.38,0,30.83,30.83,0,0,0-11.18,7A30.5,30.5,0,0,0,147.34,572.9Zm32.35-8c14.88,0,22.12,7.24,22.12,22.14,0,14.69-7.44,22.14-22.12,22.14-14.9,0-22.14-7.24-22.14-22.14S164.79,564.93,179.69,564.93Z"/><polygon class="cls-1" points="277.62 552.56 218.67 552.56 218.67 564.93 241.9 564.93 241.9 621.58 254.29 621.58 254.29 564.93 277.62 564.93 277.62 552.56"/><path class="cls-1" d="M284.25,572.9a47.1,47.1,0,0,0,0,28.39,29.11,29.11,0,0,0,18.14,18.11,47.29,47.29,0,0,0,28.4,0,29.09,29.09,0,0,0,18.12-18.14,47.21,47.21,0,0,0,0-28.36,29,29,0,0,0-18.15-18.14,47.27,47.27,0,0,0-28.38,0,30.83,30.83,0,0,0-11.18,7A30.37,30.37,0,0,0,284.25,572.9Zm32.35-8c14.88,0,22.12,7.24,22.12,22.14,0,14.69-7.44,22.14-22.12,22.14-14.9,0-22.14-7.24-22.14-22.14S301.7,564.93,316.6,564.93Z"/><path class="cls-1" d="M361.82,572.9a47.31,47.31,0,0,0,0,28.39A29.09,29.09,0,0,0,380,619.4a47.29,47.29,0,0,0,28.4,0,29,29,0,0,0,18.11-18.14,42.94,42.94,0,0,0,2.18-14.17v-6.19H391.23v12.37h24.65l-.33,1.4c-2.25,9.66-9.44,14.56-21.38,14.56-14.9,0-22.14-7.24-22.14-22.14s7.24-22.14,22.14-22.14a28.35,28.35,0,0,1,12.31,2.45,16.58,16.58,0,0,1,6.31,5.52l10.77-6A27.42,27.42,0,0,0,412,556.31a40.24,40.24,0,0,0-17.83-3.75,42.75,42.75,0,0,0-14.2,2.18,30.83,30.83,0,0,0-11.18,7A30.5,30.5,0,0,0,361.82,572.9Z"/><path class="cls-1" d="M471.27,601.79l13.82,19.79h15.12l-15-21.34,1.43-.5c9.3-3.24,14.63-11.53,14.63-22.75,0-15.06-9.37-24.43-24.43-24.43H440.29v69h12.39V601.3h18.26Zm-18.59-36.86h24.17c4.22,0,7.27,1,9.08,2.9s3,5,3,9.16-1,7.07-3,9-4.87,2.9-9.07,2.9H452.68Z"/><path class="cls-1" d="M563,613.53l3.77,8.05h13.67l-32-69h-7.92l-32.05,69h13.68l3.77-8.05Zm-18.56-40.09,12.8,27.7h-25.7Z"/><path class="cls-1" d="M628.25,552.56H591.69v69h12.39V601.3h24.17c15.06,0,24.42-9.32,24.42-24.31S643.31,552.56,628.25,552.56ZM637.31,586c-1.81,1.91-4.86,2.9-9.06,2.9H604.08v-24h24.17c4.21,0,7.27,1,9.08,2.9s3,5,3,9.16S639.28,584.06,637.31,586Z"/><polygon class="cls-1" points="725.27 621.58 725.27 552.56 712.88 552.56 712.88 580.88 676.67 580.88 676.67 552.56 664.28 552.56 664.28 621.58 676.67 621.58 676.67 593.25 712.88 593.25 712.88 621.58 725.27 621.58"/><polygon class="cls-1" points="785.91 552.56 767.29 586.4 748.68 552.56 734.59 552.56 761.1 600.82 761.1 621.58 773.49 621.58 773.63 600.57 800 552.56 785.91 552.56"/></svg>